<?xml version="1.0" encoding="UTF-8" standalone="no"?>
<!DOCTYPE svg PUBLIC "-//W3C//DTD SVG 1.1//EN" "http://www.w3.org/Graphics/SVG/1.1/DTD/svg11.dtd">
<svg width="100%" height="100%" viewBox="0 0 256 256" version="1.1" xmlns="http://www.w3.org/2000/svg" xmlns:xlink="http://www.w3.org/1999/xlink" xml:space="preserve" xmlns:serif="http://www.serif.com/" style="fill-rule:evenodd;clip-rule:evenodd;stroke-linejoin:round;stroke-miterlimit:2;">
    <rect id="DrawMode_Quad" x="0" y="0" width="256" height="256" style="fill:none;"/>
    <g id="DrawMode_Quad1" serif:id="DrawMode_Quad">
        <circle cx="47.862" cy="48.631" r="11.931" style="fill:rgb(107,198,209);"/>
        <g transform="matrix(1,0,0,1,0,168.153)">
            <circle cx="47.862" cy="48.631" r="11.931" style="fill:rgb(107,198,209);"/>
        </g>
        <g transform="matrix(1,0,0,1,167.831,168.153)">
            <circle cx="47.862" cy="48.631" r="11.931" style="fill:rgb(107,198,209);"/>
        </g>
        <g transform="matrix(1,0,0,1,167.831,-2.84217e-14)">
            <circle cx="47.862" cy="48.631" r="11.931" style="fill:rgb(107,198,209);"/>
        </g>
        <g transform="matrix(1.52845,0,0,1,-40.1956,168.189)">
            <path d="M68.164,51.207L68.164,45.983L151.997,45.983L151.997,41.131L156.88,48.595L151.997,56.059L151.997,51.207L68.164,51.207Z" style="fill:rgb(107,198,209);"/>
        </g>
        <g transform="matrix(9.35904e-17,-1.52845,1,6.12323e-17,167.098,305.883)">
            <path d="M68.164,51.207L68.164,45.983L151.997,45.983L151.997,41.131L156.88,48.595L151.997,56.059L151.997,51.207L68.164,51.207Z" style="fill:rgb(107,198,209);"/>
        </g>
        <g transform="matrix(-1.52845,-1.87181e-16,1.22465e-16,-1,302.41,95.6876)">
            <path d="M68.164,51.207L68.164,45.983L151.997,45.983L151.997,41.131L156.88,48.595L151.997,56.059L151.997,51.207L68.164,51.207Z" style="fill:rgb(107,198,209);"/>
        </g>
        <g transform="matrix(9.35904e-17,1.52845,-1,6.12323e-17,96.4568,-38.0859)">
            <path d="M68.164,51.207L68.164,45.983L151.997,45.983L151.997,41.131L156.88,48.595L151.997,56.059L151.997,51.207L68.164,51.207Z" style="fill:rgb(107,198,209);"/>
        </g>
        <g transform="matrix(0.640139,0,0,0.707426,12.9436,20.6364)">
            <g transform="matrix(24,0,0,24,61.9876,47.9486)">
            </g>
            <text x="47.588px" y="47.949px" style="font-family:'IBMPlexSans-MediumItalic', 'IBM Plex Sans', sans-serif;font-weight:500;font-style:italic;font-size:24px;fill:white;">1</text>
        </g>
        <g transform="matrix(0.640139,0,0,0.707426,180.775,20.6364)">
            <g transform="matrix(24,0,0,24,61.9876,47.9486)">
            </g>
            <text x="47.588px" y="47.949px" style="font-family:'IBMPlexSans-MediumItalic', 'IBM Plex Sans', sans-serif;font-weight:500;font-style:italic;font-size:24px;fill:white;">4</text>
        </g>
        <g transform="matrix(0.640139,0,0,0.707426,12.9436,188.789)">
            <g transform="matrix(24,0,0,24,61.9876,47.9486)">
            </g>
            <text x="47.588px" y="47.949px" style="font-family:'IBMPlexSans-MediumItalic', 'IBM Plex Sans', sans-serif;font-weight:500;font-style:italic;font-size:24px;fill:white;">2</text>
        </g>
        <g transform="matrix(0.640139,0,0,0.707426,180.744,188.789)">
            <g transform="matrix(24,0,0,24,61.9876,47.9486)">
            </g>
            <text x="47.588px" y="47.949px" style="font-family:'IBMPlexSans-MediumItalic', 'IBM Plex Sans', sans-serif;font-weight:500;font-style:italic;font-size:24px;fill:white;">3</text>
        </g>
    </g>
</svg>
