<?xml version="1.0" encoding="UTF-8" standalone="no"?>
<!DOCTYPE svg PUBLIC "-//W3C//DTD SVG 1.1//EN" "http://www.w3.org/Graphics/SVG/1.1/DTD/svg11.dtd">
<svg width="100%" height="100%" viewBox="0 0 257 257" version="1.1" xmlns="http://www.w3.org/2000/svg" xmlns:xlink="http://www.w3.org/1999/xlink" xml:space="preserve" xmlns:serif="http://www.serif.com/" style="fill-rule:evenodd;clip-rule:evenodd;stroke-linejoin:round;stroke-miterlimit:2;">
    <g transform="matrix(1,0,0,1,-2,-271)">
        <g transform="matrix(1,0,0,1,2.4256,271.709)">
            <rect id="DrawMode_Fan" x="0" y="0" width="256" height="256" style="fill:none;"/>
            <g id="DrawMode_Fan1" serif:id="DrawMode_Fan">
                <g transform="matrix(1,0,0,1,80.1383,79.3689)">
                    <circle cx="47.862" cy="48.631" r="11.931" style="fill:rgb(107,198,209);"/>
                    <g transform="matrix(0.640139,0,0,0.707426,12.9436,20.6364)">
                        <g transform="matrix(24,0,0,24,61.9876,47.9486)">
                        </g>
                        <text x="47.588px" y="47.949px" style="font-family:'IBMPlexSans-MediumItalic', 'IBM Plex Sans', sans-serif;font-weight:500;font-style:italic;font-size:24px;fill:white;">1</text>
                    </g>
                </g>
                <g transform="matrix(1,0,0,1,80.1383,-180.341)">
                    <g transform="matrix(1,0,0,1,0,168.153)">
                        <circle cx="47.862" cy="48.631" r="11.931" style="fill:rgb(107,198,209);"/>
                    </g>
                    <g transform="matrix(0.640139,0,0,0.707426,12.9436,188.789)">
                        <g transform="matrix(24,0,0,24,61.9876,47.9486)">
                        </g>
                        <text x="47.588px" y="47.949px" style="font-family:'IBMPlexSans-MediumItalic', 'IBM Plex Sans', sans-serif;font-weight:500;font-style:italic;font-size:24px;fill:white;">2</text>
                    </g>
                </g>
                <g transform="matrix(1,0,0,1,0,-180.341)">
                    <g transform="matrix(1,0,0,1,167.831,168.153)">
                        <circle cx="47.862" cy="48.631" r="11.931" style="fill:rgb(107,198,209);"/>
                    </g>
                    <g id="DrawMode_Quad" transform="matrix(0.640139,0,0,0.707426,180.744,188.789)">
                        <g transform="matrix(24,0,0,24,61.9876,47.9486)">
                        </g>
                        <text x="47.588px" y="47.949px" style="font-family:'IBMPlexSans-MediumItalic', 'IBM Plex Sans', sans-serif;font-weight:500;font-style:italic;font-size:24px;fill:white;">3</text>
                    </g>
                </g>
                <g transform="matrix(1,0,0,1,0,79.3689)">
                    <g transform="matrix(1,0,0,1,167.831,-2.84217e-14)">
                        <circle cx="47.862" cy="48.631" r="11.931" style="fill:rgb(107,198,209);"/>
                    </g>
                    <g transform="matrix(0.640139,0,0,0.707426,180.775,20.6364)">
                        <g transform="matrix(24,0,0,24,61.9876,47.9486)">
                        </g>
                        <text x="47.588px" y="47.949px" style="font-family:'IBMPlexSans-MediumItalic', 'IBM Plex Sans', sans-serif;font-weight:500;font-style:italic;font-size:24px;fill:white;">4</text>
                    </g>
                </g>
                <g transform="matrix(1,0,0,1,0,178.858)">
                    <g transform="matrix(1,0,0,1,167.831,-2.84217e-14)">
                        <circle cx="47.862" cy="48.631" r="11.931" style="fill:rgb(107,198,209);"/>
                    </g>
                    <g transform="matrix(0.640139,0,0,0.707426,180.775,20.6364)">
                        <g transform="matrix(24,0,0,24,61.9876,47.9486)">
                        </g>
                        <text x="47.588px" y="47.949px" style="font-family:'IBMPlexSans-MediumItalic', 'IBM Plex Sans', sans-serif;font-weight:500;font-style:italic;font-size:24px;fill:white;">5</text>
                    </g>
                </g>
                <g transform="matrix(1,0,0,1,-87.6931,178.638)">
                    <g transform="matrix(1,0,0,1,167.831,-2.84217e-14)">
                        <circle cx="47.862" cy="48.631" r="11.931" style="fill:rgb(107,198,209);"/>
                    </g>
                    <g transform="matrix(0.640139,0,0,0.707426,180.775,20.6364)">
                        <g transform="matrix(24,0,0,24,61.9876,47.9486)">
                        </g>
                        <text x="47.588px" y="47.949px" style="font-family:'IBMPlexSans-MediumItalic', 'IBM Plex Sans', sans-serif;font-weight:500;font-style:italic;font-size:24px;fill:white;">6</text>
                    </g>
                </g>
                <g transform="matrix(1,0,0,1,-172.622,178.858)">
                    <g transform="matrix(1,0,0,1,167.831,-2.84217e-14)">
                        <circle cx="47.862" cy="48.631" r="11.931" style="fill:rgb(107,198,209);"/>
                    </g>
                    <g transform="matrix(0.640139,0,0,0.707426,180.775,20.6364)">
                        <g transform="matrix(24,0,0,24,61.9876,47.9486)">
                        </g>
                        <text x="47.588px" y="47.949px" style="font-family:'IBMPlexSans-MediumItalic', 'IBM Plex Sans', sans-serif;font-weight:500;font-style:italic;font-size:24px;fill:white;">7</text>
                    </g>
                </g>
                <g transform="matrix(1,0,0,1,-172.622,79.3689)">
                    <g transform="matrix(1,0,0,1,167.831,-2.84217e-14)">
                        <circle cx="47.862" cy="48.631" r="11.931" style="fill:rgb(107,198,209);"/>
                    </g>
                    <g transform="matrix(0.640139,0,0,0.707426,180.775,20.6364)">
                        <g transform="matrix(24,0,0,24,61.9876,47.9486)">
                        </g>
                        <text x="47.588px" y="47.949px" style="font-family:'IBMPlexSans-MediumItalic', 'IBM Plex Sans', sans-serif;font-weight:500;font-style:italic;font-size:24px;fill:white;">8</text>
                    </g>
                </g>
                <g transform="matrix(4.09831e-17,-0.669304,1.01064,6.18839e-17,78.8878,157.799)">
                    <path d="M68.164,51.207L68.164,45.983L145.61,45.983L145.61,41.131L156.88,48.595L145.61,56.059L145.61,51.207L68.164,51.207Z" style="fill:rgb(107,198,209);"/>
                </g>
                <g transform="matrix(0.669304,-6.16298e-33,0,1.01064,96.4453,-13.0318)">
                    <path d="M68.164,51.207L68.164,45.983L145.61,45.983L145.61,41.131L156.88,48.595L145.61,56.059L145.61,51.207L68.164,51.207Z" style="fill:rgb(107,198,209);"/>
                </g>
                <g transform="matrix(4.09831e-17,0.669304,-1.01064,6.18839e-17,265.082,7.17573)">
                    <path d="M68.164,51.207L68.164,45.983L145.61,45.983L145.61,41.131L156.88,48.595L145.61,56.059L145.61,51.207L68.164,51.207Z" style="fill:rgb(107,198,209);"/>
                </g>
                <g transform="matrix(4.09831e-17,-0.669304,1.01064,6.18839e-17,-5.78806,252.293)">
                    <path d="M68.164,51.207L68.164,45.983L145.61,45.983L145.61,41.131L156.88,48.595L145.61,56.059L145.61,51.207L68.164,51.207Z" style="fill:rgb(107,198,209);"/>
                </g>
                <g transform="matrix(4.09831e-17,0.669304,-1.01064,6.18839e-17,265.082,101.67)">
                    <path d="M68.164,51.207L68.164,45.983L145.61,45.983L145.61,41.131L156.88,48.595L145.61,56.059L145.61,51.207L68.164,51.207Z" style="fill:rgb(107,198,209);"/>
                </g>
                <g transform="matrix(-0.669304,-8.19662e-17,1.23768e-16,-1.01064,247.069,276.381)">
                    <path d="M68.164,51.207L68.164,45.983L145.61,45.983L145.61,41.131L156.88,48.595L145.61,56.059L145.61,51.207L68.164,51.207Z" style="fill:rgb(107,198,209);"/>
                </g>
                <g transform="matrix(-0.630858,-7.72579e-17,1.23768e-16,-1.01064,157.382,276.381)">
                    <path d="M68.164,51.207L68.164,45.983L144.923,45.983L144.923,41.131L156.88,48.595L144.923,56.059L144.923,51.207L68.164,51.207Z" style="fill:rgb(107,198,209);"/>
                </g>
                <g transform="matrix(0.630858,-3.69779e-32,0,1.01064,15.4103,78.8878)">
                    <path d="M68.164,51.207L68.164,45.983L144.923,45.983L144.923,41.131L156.88,48.595L144.923,56.059L144.923,51.207L68.164,51.207Z" style="fill:rgb(107,198,209);"/>
                </g>
                <g>
                    <g transform="matrix(1,0,0,1,-2.4256,-271.709)">
                        <path d="M206.015,319.478L146.241,319.478L146.241,392.166L206.015,319.478Z" style="fill:rgb(172,107,209);"/>
                    </g>
                    <g transform="matrix(-1,1.22465e-16,-1.22465e-16,-1,349.831,439.934)">
                        <path d="M206.015,319.478L146.241,319.478L146.241,392.166L206.015,319.478Z" style="fill:rgb(107,209,168);"/>
                    </g>
                </g>
                <g transform="matrix(1,0,0,1,-85.6252,95.9199)">
                    <g transform="matrix(1,0,0,1,-2.4256,-271.709)">
                        <path d="M206.015,319.478L146.241,319.478L146.241,392.166L206.015,319.478Z" style="fill:rgb(172,107,209);"/>
                    </g>
                    <g transform="matrix(-1,1.22465e-16,-1.22465e-16,-1,349.831,439.934)">
                        <path d="M206.015,319.478L146.241,319.478L146.241,392.166L206.015,319.478Z" style="fill:rgb(107,209,168);"/>
                    </g>
                </g>
                <g>
                    <g transform="matrix(7.63784e-17,1.21457,-0.827085,4.93135e-17,467.825,-33.8445)">
                        <path d="M206.015,319.478L146.241,319.478L146.241,392.166L206.015,319.478Z" style="fill:rgb(172,107,209);"/>
                    </g>
                    <g transform="matrix(-1.77667e-16,-1.21457,0.827085,-1.98056e-16,-120.764,393.997)">
                        <path d="M206.015,319.478L146.241,319.478L146.241,392.166L206.015,319.478Z" style="fill:rgb(107,209,168);"/>
                    </g>
                </g>
            </g>
        </g>
    </g>
</svg>
