<svg width="0" height="0" class="hidden">
  <symbol version="1.1" xmlns="http://www.w3.org/2000/svg" xmlns:xlink="http://www.w3.org/1999/xlink" xml:space="preserve" xmlnsSerif="http://www.serif.com/" viewBox="0 0 128 128" id="outfox-sprite">
    <path d="M69.966,23.859c7.584,-5.652 12.566,-7.937 15,-8.353c2.827,-0.484 -0.434,3.575 -3.17,11.752c-0.114,0.341 -1.869,0.176 -1.996,0.105c-2.956,-1.621 -5.382,-2.611 -9.834,-3.504Z"></path>
    <path d="M53.072,40.678c11.062,-16.424 28.081,-24.827 32.1,-25.515c2.832,-0.485 -0.446,4.656 -3.183,12.806c-2.832,-1.129 -8.126,1.291 -7.949,4.01c0.467,7.201 2.042,16.817 2.729,20.792c-0.043,0.045 -0.087,0.091 -0.131,0.138c-0.242,0.256 -0.522,0.562 -0.835,0.912c-7.707,-4.414 -16.003,-4.168 -24.898,0.787c0.004,-0.02 1.236,-6.72 2.167,-13.93l-0,0Zm32.077,-24.444c-0.082,0.406 -0.242,1.12 -0.465,1.739c-0.748,2.078 -2.091,5.079 -3.373,8.745c-1.882,-0.277 -4.251,0.345 -5.947,1.479c-1.523,1.019 -2.461,2.437 -2.369,3.849c0.45,6.946 1.925,16.125 2.654,20.388l-0.065,0.07c-7.258,-3.872 -15.016,-3.841 -23.278,0.191c0.431,-2.506 1.161,-6.949 1.772,-11.636l0,-0c10.669,-15.705 26.819,-23.925 31.071,-24.825l0,-0Z"></path>
    <path d="M26.652,83.58c6.003,4.921 14.084,11.229 21.126,16.435c-2.393,8.408 -9.424,13.993 -16.288,12.656c-7.282,-1.419 -11.636,-10.096 -9.716,-19.365c0.8,-3.864 2.565,-7.224 4.878,-9.726Z"></path>
    <path d="M101.451,83.495c2.353,2.511 4.149,5.904 4.958,9.811c1.92,9.269 -2.434,17.946 -9.716,19.365c-6.895,1.343 -13.958,-4.298 -16.319,-12.768c7.046,-5.214 15.107,-11.51 21.077,-16.408Z"></path>
    <path d="M63.956,111.885c-0.539,0.013 -2.518,-0.051 -5.328,-1.765c-9.471,-5.777 -35.048,-25.802 -41.058,-31.591c-2.206,-2.125 -2.87,-3.616 -2.856,-4.921c0.007,-0.706 0.196,-1.415 0.602,-2.185c4.361,-8.266 21.923,-37.372 28.116,-44.178c1.624,-1.785 4.871,-2.068 7.714,-0.988c1.569,0.595 2.969,1.557 3.827,2.644c0.782,0.99 1.159,2.099 1.086,3.214c-0.399,6.162 -1.6,14.073 -2.381,18.793c7.248,-3.064 14.116,-3.111 20.607,-0.219c-0.78,-4.743 -1.951,-12.506 -2.345,-18.574c-0.072,-1.115 0.305,-2.224 1.087,-3.214c0.858,-1.087 2.257,-2.049 3.826,-2.644c2.843,-1.08 6.091,-0.797 7.715,0.988c6.193,6.806 23.754,35.912 28.116,44.178c0.406,0.77 0.594,1.479 0.602,2.185c0.014,1.305 -0.65,2.796 -2.856,4.921c-6.011,5.789 -31.587,25.814 -41.059,31.591c-2.883,1.759 -4.902,1.791 -5.415,1.765Zm-21.317,-45.004c-2.851,0 -5.166,2.246 -5.166,5.012c0,2.766 2.315,5.011 5.166,5.011c2.852,0 5.167,-2.245 5.167,-5.011c-0,-2.766 -2.315,-5.012 -5.167,-5.012Zm42.722,0c-2.852,0 -5.167,2.246 -5.167,5.012c0,2.766 2.315,5.011 5.167,5.011c2.851,0 5.166,-2.245 5.166,-5.011c-0,-2.766 -2.315,-5.012 -5.166,-5.012Zm-41.148,30.472c6.177,4.655 11.976,8.814 15.511,10.971c2.444,1.491 4.063,1.465 4.257,1.455l0.019,-0.001c-0,0 1.668,0.136 4.276,-1.454c3.515,-2.144 9.27,-6.269 15.405,-10.892c-6.248,2.262 -13.752,3.634 -19.681,3.634c-5.998,-0 -13.551,-1.404 -19.787,-3.713Z"></path>
  </symbol>
</svg>